<svg width="48" height="48" viewBox="0 0 48 48" fill="none" xmlns="http://www.w3.org/2000/svg">
  <rect width="48" height="48" rx="12" fill="#0EA5E9" />
  <path d="M24 12C17.373 12 12 17.373 12 24C12 30.627 17.373 36 24 36C30.627 36 36 30.627 36 24C36 17.373 30.627 12 24 12ZM24 34C18.477 34 14 29.523 14 24C14 18.477 18.477 14 24 14C29.523 14 34 18.477 34 24C34 29.523 29.523 34 24 34Z" fill="white"/>
  <path d="M29.657 19.172C29.252 18.781 28.62 18.795 28.232 19.203L24.588 23.073L21.475 20.284C21.07 19.928 20.439 19.969 20.084 20.372C19.729 20.775 19.77 21.407 20.173 21.762L23.941 25.137C24.134 25.311 24.384 25.399 24.636 25.399C24.9 25.399 25.163 25.302 25.36 25.111L29.689 20.596C30.078 20.188 30.063 19.556 29.657 19.172Z" fill="white"/>
  <path d="M32 23H30V25H32V23Z" fill="white"/>
  <path d="M24 16C23.447 16 23 16.447 23 17V19H25V17C25 16.447 24.553 16 24 16Z" fill="white"/>
  <path d="M24 29C23.447 29 23 29.447 23 30V32H25V30C25 29.447 24.553 29 24 29Z" fill="white"/>
  <path d="M18 23H16V25H18V23Z" fill="white"/>
</svg>